<svg xmlns="http://www.w3.org/2000/svg" xmlns:xlink="http://www.w3.org/1999/xlink" width="230" zoomAndPan="magnify" viewBox="0 0 172.5 131.999998" height="176" preserveAspectRatio="xMidYMid meet" version="1.0"><path fill="#fffdf4" d="M 69.171875 29.0625 L 69.386719 35.417969 L 60.882812 38.144531 C 62.164062 41.304688 62.597656 44.769531 62.597656 48.148438 L 66.769531 42.207031 C 67.125 41.769531 67.617188 41.003906 68.433594 40.949219 C 67.835938 42.585938 67.015625 44.167969 66.523438 45.859375 C 65.269531 50.03125 64.480469 56.902344 67.480469 60.5 C 68.980469 62.300781 71.132812 62.84375 72.988281 61.210938 C 75.496094 59 75.851562 53.492188 75.6875 50.441406 C 75.386719 44.113281 72.878906 38.117188 72.550781 31.761719 C 72.085938 22.765625 76.015625 12.894531 81.792969 5.886719 C 81.902344 5.75 82.449219 5.179688 82.640625 5.367188 C 82.75 5.503906 82.039062 7.085938 81.957031 7.386719 C 76.941406 25.683594 94.417969 38.359375 98.78125 54.691406 C 102.953125 70.316406 91.882812 79.285156 87.601562 92.839844 C 87.058594 94.554688 86.59375 96.21875 86.429688 97.992188 C 86.265625 99.765625 85.066406 97.992188 84.410156 97.554688 C 74.785156 91.230469 62.300781 89.785156 56.492188 78.824219 C 48.992188 64.699219 62.84375 47.957031 52.402344 35.578125 C 51.828125 34.925781 51.09375 34.242188 50.410156 33.671875 " fill-opacity="1" fill-rule="nonzero"/><path fill="#6e6f72" d="M 103.933594 37.242188 C 104.289062 37.84375 104.097656 39.453125 103.988281 40.050781 C 103.472656 43.460938 104.914062 45.886719 106.441406 47.820312 L 109.824219 51.421875 C 109.277344 42.640625 111.242188 37.925781 111.242188 37.925781 C 103.390625 36.371094 95.316406 32.472656 87.03125 26.527344 L 85.964844 17.882812 C 86.320312 18.128906 87.191406 18.839844 87.410156 19.027344 C 94.691406 25.65625 105.734375 30.945312 118.140625 32.988281 C 119.121094 33.152344 119.121094 33.125 120.976562 33.453125 C 122.828125 33.78125 120.976562 33.453125 121.875 33.617188 C 120.59375 34.570312 119.285156 36.042969 118.414062 37.378906 C 110.042969 50.195312 124.464844 66.800781 114.242188 81.085938 C 108.488281 89.128906 98.699219 91.421875 90.300781 95.972656 C 90.136719 96.054688 90.027344 95.863281 90.109375 95.539062 C 92.128906 86.050781 99.273438 78.003906 101.972656 68.871094 C 104.179688 61.375 102.789062 55.402344 99.652344 48.421875 C 98.507812 45.257812 100.171875 42.394531 101.617188 40.433594 " fill-opacity="1" fill-rule="nonzero"/><path fill="#fffdf4" d="M 20.636719 121.902344 L 17.308594 121.902344 L 15.210938 114.105469 L 13.082031 121.902344 L 9.785156 121.902344 L 6.1875 109.308594 L 9.375 109.308594 L 11.585938 117.242188 L 13.738281 109.308594 L 16.683594 109.308594 L 18.835938 117.242188 L 21.046875 109.308594 L 24.234375 109.308594 Z M 20.636719 121.902344 " fill-opacity="1" fill-rule="nonzero"/><path fill="#fffdf4" d="M 27.863281 108.132812 C 28.136719 108.242188 28.351562 108.460938 28.570312 108.734375 C 28.761719 109.035156 28.871094 109.335938 28.871094 109.660156 C 28.871094 109.988281 28.707031 110.535156 28.378906 110.859375 C 28.054688 111.1875 27.644531 111.351562 27.125 111.351562 C 26.609375 111.351562 26.636719 111.296875 26.363281 111.1875 C 26.089844 111.078125 25.871094 110.886719 25.679688 110.617188 C 25.488281 110.34375 25.410156 110.015625 25.410156 109.6875 C 25.410156 109.363281 25.570312 108.816406 25.898438 108.488281 C 26.226562 108.160156 26.636719 107.972656 27.152344 107.972656 C 27.671875 107.972656 27.644531 108.027344 27.917969 108.132812 Z M 25.597656 121.902344 L 25.597656 112.46875 L 28.597656 112.46875 L 28.597656 121.902344 Z M 25.597656 121.902344 " fill-opacity="1" fill-rule="nonzero"/><path fill="#fffdf4" d="M 30.941406 108.351562 L 33.941406 108.351562 L 33.941406 121.902344 L 30.941406 121.902344 Z M 30.941406 108.351562 " fill-opacity="1" fill-rule="nonzero"/><path fill="#fffdf4" d="M 46.046875 121.902344 L 43.050781 121.902344 L 43.050781 121.140625 C 42.285156 121.820312 41.304688 122.175781 40.105469 122.175781 C 38.90625 122.175781 38.90625 122.066406 38.332031 121.820312 C 37.757812 121.578125 37.269531 121.25 36.859375 120.785156 C 36.449219 120.351562 36.097656 119.804688 35.851562 119.175781 C 35.605469 118.550781 35.496094 117.867188 35.496094 117.160156 C 35.496094 116.449219 35.523438 116.421875 35.605469 115.988281 C 35.6875 115.550781 35.824219 115.113281 36.042969 114.679688 C 36.261719 114.242188 36.558594 113.832031 36.914062 113.453125 C 37.296875 113.070312 37.757812 112.742188 38.304688 112.496094 C 38.851562 112.25 39.449219 112.144531 40.050781 112.144531 C 41.25 112.144531 42.230469 112.496094 42.996094 113.179688 L 42.996094 108.324219 L 45.992188 108.324219 L 45.992188 121.875 Z M 41.6875 119.394531 C 42.039062 119.230469 42.367188 118.960938 42.613281 118.550781 C 42.886719 118.140625 43.023438 117.675781 43.023438 117.160156 C 43.023438 116.640625 42.804688 115.878906 42.339844 115.414062 C 41.875 114.949219 41.332031 114.707031 40.703125 114.707031 C 40.078125 114.707031 39.804688 114.84375 39.421875 115.085938 C 39.042969 115.332031 38.796875 115.660156 38.632812 116.070312 C 38.46875 116.476562 38.414062 116.804688 38.414062 117.160156 C 38.414062 117.515625 38.496094 117.867188 38.632812 118.25 C 38.769531 118.632812 39.042969 118.960938 39.421875 119.230469 C 39.804688 119.476562 40.214844 119.613281 40.703125 119.613281 C 41.195312 119.613281 41.304688 119.53125 41.6875 119.394531 Z M 41.6875 119.394531 " fill-opacity="1" fill-rule="nonzero"/><path fill="#fffdf4" d="M 56.628906 109.988281 C 57.554688 110.644531 58.128906 111.515625 58.371094 112.660156 L 55.320312 113.289062 C 55.210938 112.714844 54.9375 112.277344 54.527344 111.980469 C 54.121094 111.679688 53.65625 111.515625 53.109375 111.515625 C 52.566406 111.515625 52.210938 111.625 51.882812 111.871094 C 51.554688 112.117188 51.421875 112.414062 51.421875 112.769531 C 51.421875 113.125 51.5 113.261719 51.664062 113.425781 C 51.828125 113.613281 52.074219 113.722656 52.457031 113.804688 L 55.074219 114.378906 C 56.191406 114.625 57.035156 115.058594 57.636719 115.660156 C 58.238281 116.261719 58.535156 117.050781 58.535156 118.03125 C 58.535156 119.015625 58.398438 119.257812 58.128906 119.777344 C 57.855469 120.296875 57.472656 120.730469 57.007812 121.085938 C 56.546875 121.441406 55.972656 121.6875 55.347656 121.875 C 54.71875 122.039062 54.066406 122.148438 53.355469 122.148438 C 52.648438 122.148438 51.992188 122.066406 51.367188 121.902344 C 50.738281 121.742188 50.164062 121.496094 49.675781 121.167969 C 49.183594 120.839844 48.773438 120.429688 48.476562 119.96875 C 48.175781 119.503906 47.957031 118.960938 47.875 118.359375 L 51.066406 117.730469 C 51.175781 118.195312 51.367188 118.578125 51.636719 118.878906 C 51.910156 119.175781 52.210938 119.367188 52.566406 119.449219 C 52.917969 119.53125 53.21875 119.585938 53.546875 119.585938 C 54.121094 119.585938 54.554688 119.476562 54.910156 119.230469 C 55.265625 118.988281 55.429688 118.6875 55.429688 118.304688 C 55.429688 117.921875 55.347656 117.785156 55.15625 117.597656 C 54.992188 117.40625 54.691406 117.269531 54.253906 117.1875 L 51.609375 116.613281 C 49.347656 116.097656 48.230469 114.898438 48.230469 112.960938 C 48.230469 111.023438 48.695312 110.804688 49.621094 110.070312 C 50.546875 109.363281 51.746094 108.980469 53.21875 108.980469 C 54.691406 108.980469 55.753906 109.308594 56.683594 109.960938 Z M 56.628906 109.988281 " fill-opacity="1" fill-rule="nonzero"/><path fill="#fffdf4" d="M 66.417969 112.414062 C 66.960938 112.578125 67.425781 112.824219 67.78125 113.152344 C 68.160156 113.480469 68.433594 113.859375 68.652344 114.324219 C 68.84375 114.789062 68.953125 115.332031 68.953125 115.90625 L 68.953125 121.875 L 66.0625 121.875 L 66.0625 121.167969 C 65.296875 121.820312 64.34375 122.148438 63.253906 122.148438 C 62.164062 122.148438 61.34375 121.875 60.71875 121.304688 C 60.0625 120.730469 59.734375 119.996094 59.734375 119.066406 C 59.734375 118.140625 60.089844 117.40625 60.773438 116.859375 C 61.453125 116.3125 62.433594 116.042969 63.664062 116.042969 L 66.0625 116.042969 L 66.0625 115.851562 C 66.0625 115.46875 65.925781 115.140625 65.679688 114.898438 C 65.433594 114.652344 65.109375 114.542969 64.726562 114.542969 C 63.796875 114.542969 63.28125 114.921875 63.144531 115.714844 L 60.308594 115.140625 C 60.445312 114.570312 60.664062 114.078125 61.046875 113.667969 C 61.425781 113.261719 61.890625 112.878906 62.488281 112.605469 C 63.089844 112.332031 63.824219 112.167969 64.644531 112.167969 C 65.460938 112.167969 65.898438 112.25 66.445312 112.414062 Z M 65 119.722656 C 65.296875 119.585938 65.542969 119.394531 65.734375 119.121094 C 65.953125 118.851562 66.035156 118.550781 66.035156 118.167969 L 66.035156 117.949219 L 63.960938 117.949219 C 63.609375 117.949219 63.308594 118.03125 63.089844 118.222656 C 62.871094 118.414062 62.761719 118.632812 62.761719 118.933594 C 62.761719 119.230469 62.871094 119.449219 63.117188 119.640625 C 63.363281 119.832031 63.691406 119.914062 64.070312 119.914062 C 64.453125 119.914062 64.699219 119.859375 65 119.722656 Z M 65 119.722656 " fill-opacity="1" fill-rule="nonzero"/><path fill="#fffdf4" d="M 76.96875 112.46875 L 76.96875 114.871094 L 74.378906 114.871094 L 74.378906 121.929688 L 71.378906 121.929688 L 71.378906 114.871094 L 70.015625 114.871094 L 70.015625 112.46875 L 71.378906 112.46875 L 71.378906 111.734375 C 71.378906 111.324219 71.433594 110.914062 71.570312 110.507812 C 71.679688 110.097656 71.898438 109.6875 72.195312 109.363281 C 72.496094 109.007812 72.90625 108.707031 73.394531 108.488281 C 73.886719 108.269531 74.488281 108.132812 75.195312 108.132812 C 75.90625 108.132812 76.449219 108.269531 77.050781 108.515625 L 76.421875 110.859375 C 76.121094 110.753906 75.851562 110.699219 75.605469 110.699219 C 75.25 110.699219 74.949219 110.804688 74.734375 111.023438 C 74.515625 111.242188 74.40625 111.515625 74.40625 111.898438 L 74.40625 112.496094 L 76.996094 112.496094 Z M 76.96875 112.46875 " fill-opacity="1" fill-rule="nonzero"/><path fill="#fffdf4" d="M 87.082031 117.949219 L 80.160156 117.949219 C 80.292969 118.496094 80.539062 118.933594 80.894531 119.285156 C 81.25 119.613281 81.683594 119.777344 82.203125 119.777344 C 83.128906 119.777344 83.8125 119.421875 84.222656 118.6875 L 86.894531 119.230469 C 86.648438 119.832031 86.320312 120.351562 85.882812 120.785156 C 85.449219 121.222656 84.957031 121.550781 84.332031 121.820312 C 83.730469 122.066406 83.019531 122.203125 82.203125 122.203125 C 81.386719 122.203125 80.894531 122.09375 80.292969 121.847656 C 79.695312 121.605469 79.148438 121.277344 78.6875 120.8125 C 78.222656 120.378906 77.867188 119.832031 77.59375 119.203125 C 77.324219 118.578125 77.214844 117.894531 77.214844 117.1875 C 77.214844 116.476562 77.351562 115.796875 77.59375 115.195312 C 77.839844 114.570312 78.222656 114.050781 78.6875 113.585938 C 79.148438 113.152344 79.695312 112.796875 80.292969 112.550781 C 80.894531 112.304688 81.550781 112.195312 82.203125 112.195312 C 82.859375 112.195312 83.484375 112.304688 84.058594 112.550781 C 84.628906 112.796875 85.175781 113.125 85.613281 113.558594 C 86.046875 113.996094 86.402344 114.542969 86.675781 115.167969 C 86.949219 115.796875 87.058594 116.476562 87.082031 117.214844 L 87.082031 117.976562 Z M 81.003906 115.03125 C 80.621094 115.304688 80.375 115.660156 80.238281 116.125 L 84.140625 116.125 C 84.003906 115.660156 83.757812 115.277344 83.402344 115.03125 C 83.046875 114.789062 82.667969 114.652344 82.230469 114.652344 C 81.792969 114.652344 81.386719 114.789062 81.003906 115.058594 Z M 81.003906 115.03125 " fill-opacity="1" fill-rule="nonzero"/><path fill="#6e6f72" d="M 97.992188 109.308594 C 99 109.308594 99.925781 109.46875 100.796875 109.769531 C 101.671875 110.070312 102.378906 110.507812 103.007812 111.078125 C 103.632812 111.652344 104.097656 112.304688 104.425781 113.097656 C 104.753906 113.886719 104.914062 114.734375 104.914062 115.632812 C 104.914062 116.53125 104.753906 117.40625 104.425781 118.167969 C 104.097656 118.933594 103.632812 119.613281 103.007812 120.1875 C 102.378906 120.757812 101.671875 121.195312 100.796875 121.496094 C 99.925781 121.792969 99 121.957031 97.992188 121.957031 L 93 121.957031 L 93 109.363281 L 97.992188 109.363281 Z M 97.882812 119.203125 C 99.054688 119.203125 99.980469 118.878906 100.691406 118.222656 C 101.398438 117.570312 101.753906 116.695312 101.753906 115.605469 C 101.753906 114.515625 101.398438 113.640625 100.691406 112.988281 C 99.980469 112.332031 99.027344 112.007812 97.882812 112.007812 L 96.109375 112.007812 L 96.109375 119.230469 L 97.882812 119.230469 Z M 97.882812 119.203125 " fill-opacity="1" fill-rule="nonzero"/><path fill="#6e6f72" d="M 115.902344 117.949219 L 108.980469 117.949219 C 109.113281 118.496094 109.359375 118.933594 109.714844 119.285156 C 110.070312 119.613281 110.503906 119.777344 111.023438 119.777344 C 111.949219 119.777344 112.632812 119.421875 113.042969 118.6875 L 115.714844 119.230469 C 115.46875 119.832031 115.140625 120.351562 114.703125 120.785156 C 114.269531 121.222656 113.777344 121.550781 113.148438 121.820312 C 112.550781 122.066406 111.839844 122.203125 111.023438 122.203125 C 110.207031 122.203125 109.714844 122.09375 109.113281 121.847656 C 108.515625 121.605469 107.96875 121.277344 107.507812 120.8125 C 107.042969 120.378906 106.6875 119.832031 106.414062 119.203125 C 106.144531 118.578125 106.035156 117.894531 106.035156 117.1875 C 106.035156 116.476562 106.171875 115.796875 106.414062 115.195312 C 106.660156 114.570312 107.042969 114.050781 107.507812 113.585938 C 107.96875 113.152344 108.515625 112.796875 109.113281 112.550781 C 109.714844 112.304688 110.371094 112.195312 111.023438 112.195312 C 111.679688 112.195312 112.304688 112.304688 112.878906 112.550781 C 113.476562 112.796875 113.996094 113.125 114.433594 113.558594 C 114.867188 113.996094 115.222656 114.542969 115.496094 115.167969 C 115.769531 115.796875 115.875 116.476562 115.902344 117.214844 L 115.902344 117.976562 Z M 109.796875 115.03125 C 109.414062 115.304688 109.167969 115.660156 109.03125 116.125 L 112.933594 116.125 C 112.796875 115.660156 112.550781 115.277344 112.195312 115.03125 C 111.839844 114.789062 111.460938 114.652344 111.023438 114.652344 C 110.585938 114.652344 110.179688 114.789062 109.796875 115.058594 Z M 109.796875 115.03125 " fill-opacity="1" fill-rule="nonzero"/><path fill="#6e6f72" d="M 123.484375 112.46875 L 123.484375 114.871094 L 120.894531 114.871094 L 120.894531 121.929688 L 117.894531 121.929688 L 117.894531 114.871094 L 116.53125 114.871094 L 116.53125 112.46875 L 117.894531 112.46875 L 117.894531 111.734375 C 117.894531 111.324219 117.949219 110.914062 118.085938 110.507812 C 118.195312 110.097656 118.414062 109.6875 118.710938 109.363281 C 119.011719 109.007812 119.421875 108.707031 119.914062 108.488281 C 120.402344 108.269531 121.003906 108.132812 121.710938 108.132812 C 122.421875 108.132812 122.964844 108.269531 123.566406 108.515625 L 122.9375 110.859375 C 122.640625 110.753906 122.367188 110.699219 122.121094 110.699219 C 121.765625 110.699219 121.464844 110.804688 121.25 111.023438 C 121.03125 111.242188 120.921875 111.515625 120.921875 111.898438 L 120.921875 112.496094 L 123.511719 112.496094 Z M 123.484375 112.46875 " fill-opacity="1" fill-rule="nonzero"/><path fill="#6e6f72" d="M 133.601562 117.949219 L 126.675781 117.949219 C 126.8125 118.496094 127.054688 118.933594 127.410156 119.285156 C 127.765625 119.613281 128.199219 119.777344 128.71875 119.777344 C 129.644531 119.777344 130.328125 119.421875 130.738281 118.6875 L 133.410156 119.230469 C 133.164062 119.832031 132.835938 120.351562 132.398438 120.785156 C 131.964844 121.222656 131.472656 121.550781 130.847656 121.820312 C 130.246094 122.066406 129.539062 122.203125 128.71875 122.203125 C 127.902344 122.203125 127.410156 122.09375 126.8125 121.847656 C 126.210938 121.605469 125.664062 121.277344 125.203125 120.8125 C 124.738281 120.378906 124.382812 119.832031 124.109375 119.203125 C 123.839844 118.578125 123.730469 117.894531 123.730469 117.1875 C 123.730469 116.476562 123.867188 115.796875 124.109375 115.195312 C 124.355469 114.570312 124.738281 114.050781 125.203125 113.585938 C 125.664062 113.152344 126.210938 112.796875 126.8125 112.550781 C 127.410156 112.304688 128.066406 112.195312 128.71875 112.195312 C 129.375 112.195312 130 112.304688 130.574219 112.550781 C 131.171875 112.796875 131.691406 113.125 132.128906 113.558594 C 132.5625 113.996094 132.917969 114.542969 133.191406 115.167969 C 133.464844 115.796875 133.574219 116.476562 133.601562 117.214844 L 133.601562 117.976562 Z M 127.519531 115.03125 C 127.136719 115.304688 126.890625 115.660156 126.757812 116.125 L 130.65625 116.125 C 130.519531 115.660156 130.273438 115.277344 129.917969 115.03125 C 129.5625 114.789062 129.183594 114.652344 128.746094 114.652344 C 128.308594 114.652344 127.902344 114.789062 127.519531 115.058594 Z M 127.519531 115.03125 " fill-opacity="1" fill-rule="nonzero"/><path fill="#6e6f72" d="M 142.570312 112.46875 C 143.035156 112.660156 143.414062 112.933594 143.742188 113.261719 C 144.070312 113.613281 144.316406 114.023438 144.507812 114.515625 C 144.667969 115.003906 144.777344 115.523438 144.777344 116.125 L 144.777344 121.902344 L 141.78125 121.902344 L 141.78125 116.75 C 141.78125 116.476562 141.726562 116.207031 141.617188 115.933594 C 141.507812 115.660156 141.34375 115.386719 141.070312 115.195312 C 140.796875 115.003906 140.5 114.898438 140.144531 114.898438 C 139.515625 114.898438 139.054688 115.113281 138.699219 115.550781 C 138.34375 115.988281 138.179688 116.640625 138.179688 117.515625 L 138.179688 121.902344 L 135.179688 121.902344 L 135.179688 112.46875 L 138.179688 112.46875 L 138.179688 113.371094 C 138.535156 112.988281 138.972656 112.714844 139.460938 112.496094 C 139.953125 112.277344 140.5 112.195312 141.070312 112.195312 C 141.644531 112.195312 142.105469 112.277344 142.542969 112.46875 Z M 142.570312 112.46875 " fill-opacity="1" fill-rule="nonzero"/><path fill="#6e6f72" d="M 149.085938 118.851562 C 149.140625 119.230469 149.332031 119.503906 149.632812 119.695312 C 149.933594 119.886719 150.3125 119.96875 150.75 119.96875 C 151.1875 119.96875 151.433594 119.886719 151.648438 119.75 C 151.867188 119.613281 151.976562 119.421875 151.976562 119.203125 C 151.976562 118.851562 151.675781 118.632812 151.050781 118.496094 L 149.140625 118.113281 C 148.269531 117.949219 147.613281 117.625 147.125 117.160156 C 146.632812 116.695312 146.386719 116.097656 146.386719 115.359375 C 146.386719 114.625 146.769531 113.640625 147.503906 113.042969 C 148.242188 112.441406 149.222656 112.171875 150.449219 112.171875 C 151.675781 112.171875 152.550781 112.414062 153.3125 112.90625 C 154.078125 113.398438 154.539062 114.050781 154.730469 114.871094 L 151.976562 115.414062 C 151.921875 115.113281 151.757812 114.84375 151.484375 114.625 C 151.214844 114.40625 150.832031 114.296875 150.394531 114.296875 C 149.960938 114.296875 149.769531 114.378906 149.578125 114.515625 C 149.386719 114.652344 149.304688 114.84375 149.304688 115.03125 C 149.304688 115.359375 149.550781 115.578125 150.015625 115.6875 L 152.222656 116.152344 C 153.066406 116.3125 153.722656 116.667969 154.160156 117.1875 C 154.59375 117.703125 154.8125 118.304688 154.8125 119.015625 C 154.8125 119.722656 154.621094 120.214844 154.265625 120.703125 C 153.914062 121.195312 153.394531 121.578125 152.714844 121.820312 C 152.03125 122.066406 151.296875 122.175781 150.53125 122.175781 C 149.769531 122.175781 148.921875 122.066406 148.296875 121.847656 C 147.667969 121.632812 147.179688 121.304688 146.796875 120.921875 C 146.414062 120.539062 146.195312 120.023438 146.085938 119.449219 L 149.03125 118.851562 Z M 149.085938 118.851562 " fill-opacity="1" fill-rule="nonzero"/><path fill="#6e6f72" d="M 165.71875 117.949219 L 158.792969 117.949219 C 158.929688 118.496094 159.175781 118.933594 159.53125 119.285156 C 159.882812 119.613281 160.320312 119.777344 160.839844 119.777344 C 161.765625 119.777344 162.449219 119.421875 162.855469 118.6875 L 165.527344 119.230469 C 165.28125 119.832031 164.957031 120.351562 164.519531 120.785156 C 164.082031 121.222656 163.59375 121.550781 162.964844 121.820312 C 162.367188 122.066406 161.65625 122.203125 160.839844 122.203125 C 160.019531 122.203125 159.53125 122.09375 158.929688 121.847656 C 158.332031 121.605469 157.785156 121.277344 157.320312 120.8125 C 156.859375 120.378906 156.503906 119.832031 156.230469 119.203125 C 155.957031 118.578125 155.847656 117.894531 155.847656 117.1875 C 155.847656 116.476562 155.984375 115.796875 156.230469 115.195312 C 156.476562 114.570312 156.859375 114.050781 157.320312 113.585938 C 157.785156 113.152344 158.332031 112.796875 158.929688 112.550781 C 159.53125 112.304688 160.183594 112.195312 160.839844 112.195312 C 161.492188 112.195312 162.121094 112.304688 162.691406 112.550781 C 163.292969 112.796875 163.8125 113.125 164.246094 113.558594 C 164.683594 113.996094 165.039062 114.542969 165.308594 115.167969 C 165.582031 115.796875 165.691406 116.476562 165.71875 117.214844 L 165.71875 117.976562 Z M 159.640625 115.03125 C 159.257812 115.304688 159.011719 115.660156 158.875 116.125 L 162.773438 116.125 C 162.636719 115.660156 162.394531 115.277344 162.039062 115.03125 C 161.683594 114.789062 161.300781 114.652344 160.867188 114.652344 C 160.429688 114.652344 160.019531 114.789062 159.640625 115.058594 Z M 159.640625 115.03125 " fill-opacity="1" fill-rule="nonzero"/></svg>