<svg xmlns="http://www.w3.org/2000/svg" xmlns:xlink="http://www.w3.org/1999/xlink" width="256" zoomAndPan="magnify" viewBox="0 0 192 101.249998" height="135" preserveAspectRatio="xMidYMid meet" version="1.0"><path fill="#233b3b" d="M 26.453125 29.296875 L 26.648438 35.117188 L 18.828125 37.621094 C 20 40.511719 20.425781 43.699219 20.390625 46.820312 L 24.203125 41.359375 C 24.53125 40.96875 24.988281 40.253906 25.738281 40.1875 C 25.183594 41.683594 24.433594 43.148438 23.976562 44.675781 C 22.835938 48.511719 22.085938 54.820312 24.855469 58.105469 C 26.226562 59.761719 28.214844 60.25 29.941406 58.753906 C 32.222656 56.738281 32.546875 51.664062 32.417969 48.871094 C 32.125 43.050781 29.84375 37.585938 29.550781 31.734375 C 29.125 23.476562 32.710938 14.433594 38.054688 7.996094 C 38.15625 7.867188 38.675781 7.347656 38.839844 7.542969 C 38.9375 7.671875 38.285156 9.101562 38.21875 9.394531 C 33.589844 26.171875 49.660156 37.8125 53.699219 52.773438 C 57.546875 67.109375 47.378906 75.335938 43.433594 87.757812 C 42.945312 89.320312 42.488281 90.847656 42.359375 92.472656 C 42.226562 94.097656 41.121094 92.472656 40.5 92.050781 C 31.667969 86.261719 20.164062 84.898438 14.820312 74.882812 C 7.941406 61.941406 20.652344 46.5625 11.039062 35.214844 C 10.515625 34.59375 9.832031 33.976562 9.210938 33.457031 " fill-opacity="1" fill-rule="nonzero"/><path fill="#6e6f72" d="M 58.425781 36.804688 C 58.753906 37.359375 58.558594 38.824219 58.492188 39.375 C 58.035156 42.496094 59.339844 44.738281 60.742188 46.527344 L 63.835938 49.8125 C 63.347656 41.75 65.140625 37.425781 65.140625 37.425781 C 57.9375 35.992188 50.507812 32.417969 42.878906 26.988281 L 41.902344 19.050781 C 42.226562 19.28125 43.011719 19.929688 43.238281 20.125 C 49.953125 26.207031 60.089844 31.050781 71.496094 32.9375 C 82.902344 34.824219 72.375 33.066406 74.101562 33.359375 C 75.832031 33.652344 74.101562 33.359375 74.949219 33.523438 C 73.777344 34.398438 72.570312 35.734375 71.789062 36.96875 C 64.097656 48.707031 77.328125 63.957031 67.945312 77.0625 C 58.558594 90.164062 53.667969 86.523438 45.910156 90.71875 C 45.78125 90.78125 45.652344 90.621094 45.75 90.292969 C 47.605469 81.582031 54.191406 74.230469 56.632812 65.84375 C 58.65625 58.980469 57.382812 53.488281 54.484375 47.082031 C 53.40625 44.1875 54.972656 41.554688 56.277344 39.765625 " fill-opacity="1" fill-rule="nonzero"/><path fill="#233b3b" d="M 102.261719 53.617188 L 98.285156 53.617188 L 95.777344 44.316406 L 93.234375 53.617188 L 89.292969 53.617188 L 84.988281 38.59375 L 88.800781 38.59375 L 91.441406 48.058594 L 94.015625 38.59375 L 97.535156 38.59375 L 100.113281 48.058594 L 102.75 38.59375 L 106.566406 38.59375 Z M 102.261719 53.617188 " fill-opacity="1" fill-rule="nonzero"/><path fill="#233b3b" d="M 110.867188 37.195312 C 111.191406 37.328125 111.453125 37.554688 111.714844 37.910156 C 111.941406 38.269531 112.074219 38.628906 112.074219 39.015625 C 112.074219 39.40625 111.878906 40.058594 111.488281 40.449219 C 111.09375 40.839844 110.605469 41.035156 109.988281 41.035156 C 109.367188 41.035156 109.402344 40.96875 109.074219 40.839844 C 108.75 40.707031 108.488281 40.480469 108.261719 40.15625 C 108.03125 39.832031 107.933594 39.441406 107.933594 39.050781 C 107.933594 38.660156 108.128906 38.007812 108.519531 37.621094 C 108.910156 37.230469 109.402344 37 110.019531 37 C 110.640625 37 110.605469 37.066406 110.933594 37.195312 Z M 108.160156 53.617188 L 108.160156 42.367188 L 111.746094 42.367188 L 111.746094 53.617188 Z M 108.160156 53.617188 " fill-opacity="1" fill-rule="nonzero"/><path fill="#233b3b" d="M 114.550781 37.457031 L 118.136719 37.457031 L 118.136719 53.617188 L 114.550781 53.617188 Z M 114.550781 37.457031 " fill-opacity="1" fill-rule="nonzero"/><path fill="#233b3b" d="M 132.640625 53.617188 L 129.054688 53.617188 L 129.054688 52.707031 C 128.140625 53.519531 126.96875 53.941406 125.535156 53.941406 C 124.101562 53.941406 124.101562 53.8125 123.414062 53.519531 C 122.730469 53.226562 122.144531 52.835938 121.65625 52.285156 C 121.167969 51.761719 120.742188 51.113281 120.449219 50.367188 C 120.15625 49.617188 120.027344 48.804688 120.027344 47.960938 C 120.027344 47.113281 120.058594 47.082031 120.15625 46.5625 C 120.253906 46.039062 120.417969 45.519531 120.675781 45 C 120.9375 44.480469 121.296875 43.992188 121.71875 43.535156 C 122.175781 43.082031 122.730469 42.691406 123.382812 42.398438 C 124.035156 42.105469 124.75 41.976562 125.46875 41.976562 C 126.902344 41.976562 128.074219 42.398438 128.988281 43.210938 L 128.988281 37.425781 L 132.574219 37.425781 L 132.574219 53.585938 Z M 127.425781 50.625 C 127.847656 50.429688 128.238281 50.105469 128.53125 49.617188 C 128.859375 49.128906 129.019531 48.578125 129.019531 47.960938 C 129.019531 47.339844 128.761719 46.429688 128.207031 45.878906 C 127.652344 45.324219 127 45.03125 126.25 45.03125 C 125.5 45.03125 125.175781 45.195312 124.71875 45.488281 C 124.261719 45.8125 123.96875 46.171875 123.773438 46.660156 C 123.609375 47.113281 123.511719 47.535156 123.511719 47.960938 C 123.511719 48.382812 123.609375 48.804688 123.773438 49.261719 C 123.9375 49.714844 124.261719 50.105469 124.71875 50.429688 C 125.175781 50.722656 125.664062 50.886719 126.25 50.886719 C 126.835938 50.886719 126.96875 50.789062 127.425781 50.625 Z M 127.425781 50.625 " fill-opacity="1" fill-rule="nonzero"/><path fill="#233b3b" d="M 145.285156 39.40625 C 146.394531 40.1875 147.078125 41.226562 147.371094 42.59375 L 143.71875 43.34375 C 143.589844 42.660156 143.265625 42.140625 142.773438 41.78125 C 142.285156 41.421875 141.730469 41.226562 141.082031 41.226562 C 140.429688 41.226562 140.003906 41.359375 139.613281 41.652344 C 139.222656 41.945312 139.058594 42.300781 139.058594 42.722656 C 139.058594 43.148438 139.15625 43.308594 139.351562 43.503906 C 139.546875 43.730469 139.839844 43.863281 140.296875 43.960938 L 143.425781 44.640625 C 144.761719 44.933594 145.773438 45.457031 146.492188 46.171875 C 147.207031 46.886719 147.566406 47.828125 147.566406 49 C 147.566406 50.171875 147.402344 50.464844 147.078125 51.082031 C 146.75 51.699219 146.292969 52.21875 145.742188 52.640625 C 145.1875 53.0625 144.503906 53.355469 143.753906 53.585938 C 143.003906 53.78125 142.222656 53.910156 141.375 53.910156 C 140.527344 53.910156 139.742188 53.8125 138.996094 53.617188 C 138.246094 53.421875 137.558594 53.128906 136.972656 52.738281 C 136.386719 52.347656 135.898438 51.859375 135.539062 51.308594 C 135.179688 50.722656 134.921875 50.105469 134.824219 49.390625 L 138.636719 48.640625 C 138.765625 49.195312 138.996094 49.648438 139.320312 50.007812 C 139.644531 50.367188 140.003906 50.59375 140.429688 50.691406 C 140.851562 50.789062 141.210938 50.851562 141.601562 50.851562 C 142.285156 50.851562 142.808594 50.722656 143.230469 50.429688 C 143.65625 50.136719 143.851562 49.78125 143.851562 49.324219 C 143.851562 48.871094 143.753906 48.707031 143.523438 48.480469 C 143.328125 48.25 142.96875 48.089844 142.449219 47.992188 L 139.289062 47.308594 C 136.582031 46.691406 135.246094 45.261719 135.246094 42.953125 C 135.246094 40.644531 135.800781 40.382812 136.910156 39.503906 C 138.015625 38.660156 139.449219 38.203125 141.210938 38.203125 C 142.96875 38.203125 144.242188 38.59375 145.351562 39.375 Z M 145.285156 39.40625 " fill-opacity="1" fill-rule="nonzero"/><path fill="#233b3b" d="M 156.953125 42.300781 C 157.605469 42.496094 158.160156 42.789062 158.582031 43.179688 C 159.039062 43.570312 159.363281 44.023438 159.625 44.578125 C 159.851562 45.128906 159.984375 45.78125 159.984375 46.464844 L 159.984375 53.585938 L 156.527344 53.585938 L 156.527344 52.738281 C 155.617188 53.519531 154.476562 53.910156 153.171875 53.910156 C 151.867188 53.910156 150.890625 53.585938 150.140625 52.902344 C 149.359375 52.21875 148.96875 51.339844 148.96875 50.234375 C 148.96875 49.128906 149.390625 48.25 150.207031 47.601562 C 151.019531 46.953125 152.195312 46.625 153.660156 46.625 L 156.527344 46.625 L 156.527344 46.398438 C 156.527344 45.941406 156.367188 45.554688 156.074219 45.261719 C 155.777344 44.96875 155.386719 44.835938 154.933594 44.835938 C 153.824219 44.835938 153.203125 45.292969 153.042969 46.234375 L 149.652344 45.554688 C 149.816406 44.871094 150.074219 44.285156 150.53125 43.796875 C 150.957031 43.277344 151.542969 42.855469 152.257812 42.527344 C 152.976562 42.203125 153.855469 42.007812 154.832031 42.007812 C 155.8125 42.007812 156.332031 42.105469 156.984375 42.300781 Z M 155.289062 51.015625 C 155.648438 50.851562 155.941406 50.625 156.171875 50.300781 C 156.398438 49.976562 156.527344 49.617188 156.527344 49.164062 L 156.527344 48.902344 L 154.050781 48.902344 C 153.628906 48.902344 153.269531 49 153.007812 49.226562 C 152.75 49.453125 152.617188 49.714844 152.617188 50.074219 C 152.617188 50.429688 152.75 50.691406 153.042969 50.917969 C 153.335938 51.144531 153.726562 51.242188 154.183594 51.242188 C 154.636719 51.242188 154.933594 51.179688 155.289062 51.015625 Z M 155.289062 51.015625 " fill-opacity="1" fill-rule="nonzero"/><path fill="#233b3b" d="M 169.566406 42.367188 L 169.566406 45.226562 L 166.46875 45.226562 L 166.46875 53.648438 L 162.882812 53.648438 L 162.882812 45.226562 L 161.253906 45.226562 L 161.253906 42.367188 L 162.882812 42.367188 L 162.882812 41.488281 C 162.882812 41 162.949219 40.511719 163.113281 40.023438 C 163.242188 39.539062 163.503906 39.050781 163.863281 38.660156 C 164.21875 38.238281 164.710938 37.878906 165.296875 37.621094 C 165.882812 37.328125 166.601562 37.195312 167.445312 37.195312 C 168.292969 37.195312 168.945312 37.359375 169.664062 37.652344 L 168.914062 40.449219 C 168.554688 40.316406 168.230469 40.253906 167.9375 40.253906 C 167.511719 40.253906 167.152344 40.382812 166.894531 40.644531 C 166.632812 40.902344 166.5 41.226562 166.5 41.683594 L 166.5 42.398438 L 169.597656 42.398438 Z M 169.566406 42.367188 " fill-opacity="1" fill-rule="nonzero"/><path fill="#233b3b" d="M 181.65625 48.902344 L 173.378906 48.902344 C 173.542969 49.550781 173.835938 50.074219 174.257812 50.496094 C 174.683594 50.886719 175.203125 51.082031 175.824219 51.082031 C 176.929688 51.082031 177.746094 50.65625 178.234375 49.78125 L 181.429688 50.429688 C 181.136719 51.144531 180.746094 51.761719 180.222656 52.285156 C 179.703125 52.804688 179.113281 53.195312 178.367188 53.519531 C 177.648438 53.8125 176.800781 53.972656 175.824219 53.972656 C 174.84375 53.972656 174.257812 53.84375 173.542969 53.550781 C 172.824219 53.257812 172.171875 52.867188 171.617188 52.316406 C 171.066406 51.796875 170.640625 51.144531 170.316406 50.398438 C 169.988281 49.648438 169.859375 48.835938 169.859375 47.992188 C 169.859375 47.144531 170.023438 46.332031 170.316406 45.617188 C 170.609375 44.871094 171.066406 44.253906 171.617188 43.699219 C 172.171875 43.148438 172.824219 42.757812 173.542969 42.464844 C 174.292969 42.171875 175.042969 42.042969 175.824219 42.042969 C 176.605469 42.042969 177.355469 42.171875 178.039062 42.464844 C 178.722656 42.757812 179.375 43.148438 179.898438 43.667969 C 180.417969 44.1875 180.84375 44.835938 181.167969 45.585938 C 181.496094 46.332031 181.625 47.144531 181.65625 48.023438 L 181.65625 48.933594 Z M 174.390625 45.421875 C 173.933594 45.75 173.640625 46.171875 173.476562 46.722656 L 178.136719 46.722656 C 177.972656 46.171875 177.679688 45.714844 177.257812 45.421875 C 176.832031 45.128906 176.378906 44.96875 175.855469 44.96875 C 175.335938 44.96875 174.84375 45.128906 174.390625 45.457031 Z M 174.390625 45.421875 " fill-opacity="1" fill-rule="nonzero"/><path fill="#6e6f72" d="M 92.0625 62.007812 C 93.265625 62.007812 94.375 62.199219 95.417969 62.558594 C 96.460938 62.917969 97.308594 63.4375 98.058594 64.121094 C 98.808594 64.800781 99.363281 65.582031 99.753906 66.527344 C 100.144531 67.46875 100.339844 68.476562 100.339844 69.550781 C 100.339844 70.621094 100.144531 71.664062 99.753906 72.574219 C 99.363281 73.484375 98.808594 74.296875 98.058594 74.980469 C 97.308594 75.664062 96.460938 76.183594 95.417969 76.539062 C 94.375 76.898438 93.265625 77.09375 92.0625 77.09375 L 86.097656 77.09375 L 86.097656 62.070312 L 92.0625 62.070312 Z M 91.929688 73.808594 C 93.332031 73.808594 94.441406 73.417969 95.289062 72.636719 C 96.136719 71.859375 96.558594 70.816406 96.558594 69.515625 C 96.558594 68.214844 96.136719 67.175781 95.289062 66.394531 C 94.441406 65.617188 93.300781 65.226562 91.929688 65.226562 L 89.8125 65.226562 L 89.8125 73.839844 L 91.929688 73.839844 Z M 91.929688 73.808594 " fill-opacity="1" fill-rule="nonzero"/><path fill="#6e6f72" d="M 113.476562 72.3125 L 105.195312 72.3125 C 105.359375 72.964844 105.652344 73.484375 106.078125 73.90625 C 106.5 74.296875 107.019531 74.492188 107.640625 74.492188 C 108.75 74.492188 109.5625 74.070312 110.050781 73.191406 L 113.246094 73.839844 C 112.953125 74.558594 112.5625 75.175781 112.039062 75.695312 C 111.519531 76.214844 110.933594 76.605469 110.183594 76.929688 C 109.464844 77.222656 108.617188 77.386719 107.640625 77.386719 C 106.664062 77.386719 106.078125 77.257812 105.359375 76.964844 C 104.640625 76.671875 103.992188 76.28125 103.4375 75.726562 C 102.882812 75.207031 102.457031 74.558594 102.132812 73.808594 C 101.804688 73.0625 101.675781 72.25 101.675781 71.402344 C 101.675781 70.558594 101.839844 69.746094 102.132812 69.03125 C 102.425781 68.28125 102.882812 67.664062 103.4375 67.109375 C 103.992188 66.589844 104.640625 66.167969 105.359375 65.875 C 106.078125 65.582031 106.859375 65.453125 107.640625 65.453125 C 108.421875 65.453125 109.171875 65.582031 109.855469 65.875 C 110.542969 66.167969 111.191406 66.558594 111.714844 67.078125 C 112.234375 67.597656 112.660156 68.25 112.984375 68.996094 C 113.3125 69.746094 113.441406 70.558594 113.472656 71.4375 L 113.472656 72.347656 Z M 106.175781 68.835938 C 105.71875 69.160156 105.425781 69.582031 105.261719 70.136719 L 109.921875 70.136719 C 109.757812 69.582031 109.464844 69.125 109.042969 68.835938 C 108.617188 68.542969 108.160156 68.378906 107.640625 68.378906 C 107.121094 68.378906 106.628906 68.542969 106.175781 68.867188 Z M 106.175781 68.835938 " fill-opacity="1" fill-rule="nonzero"/><path fill="#6e6f72" d="M 122.566406 65.777344 L 122.566406 68.640625 L 119.472656 68.640625 L 119.472656 77.0625 L 115.886719 77.0625 L 115.886719 68.640625 L 114.257812 68.640625 L 114.257812 65.777344 L 115.886719 65.777344 L 115.886719 64.898438 C 115.886719 64.414062 115.953125 63.925781 116.113281 63.4375 C 116.246094 62.949219 116.503906 62.460938 116.863281 62.070312 C 117.222656 61.648438 117.710938 61.289062 118.296875 61.03125 C 118.886719 60.738281 119.601562 60.609375 120.449219 60.609375 C 121.296875 60.609375 121.949219 60.769531 122.664062 61.0625 L 121.914062 63.859375 C 121.558594 63.730469 121.230469 63.664062 120.9375 63.664062 C 120.515625 63.664062 120.15625 63.792969 119.894531 64.054688 C 119.632812 64.316406 119.503906 64.640625 119.503906 65.09375 L 119.503906 65.808594 L 122.601562 65.808594 Z M 122.566406 65.777344 " fill-opacity="1" fill-rule="nonzero"/><path fill="#6e6f72" d="M 134.660156 72.3125 L 126.382812 72.3125 C 126.542969 72.964844 126.835938 73.484375 127.261719 73.90625 C 127.683594 74.296875 128.207031 74.492188 128.824219 74.492188 C 129.933594 74.492188 130.75 74.070312 131.238281 73.191406 L 134.429688 73.839844 C 134.136719 74.558594 133.746094 75.175781 133.226562 75.695312 C 132.703125 76.214844 132.117188 76.605469 131.367188 76.929688 C 130.652344 77.222656 129.804688 77.386719 128.824219 77.386719 C 127.847656 77.386719 127.261719 77.257812 126.542969 76.964844 C 125.828125 76.671875 125.175781 76.28125 124.621094 75.726562 C 124.066406 75.207031 123.644531 74.558594 123.316406 73.808594 C 122.992188 73.0625 122.859375 72.25 122.859375 71.402344 C 122.859375 70.558594 123.023438 69.746094 123.316406 69.03125 C 123.609375 68.28125 124.066406 67.664062 124.621094 67.109375 C 125.175781 66.589844 125.828125 66.167969 126.542969 65.875 C 127.261719 65.582031 128.042969 65.453125 128.824219 65.453125 C 129.609375 65.453125 130.355469 65.582031 131.042969 65.875 C 131.726562 66.167969 132.378906 66.558594 132.898438 67.078125 C 133.421875 67.597656 133.84375 68.25 134.171875 68.996094 C 134.496094 69.746094 134.625 70.558594 134.660156 71.4375 L 134.660156 72.347656 Z M 127.359375 68.835938 C 126.902344 69.160156 126.609375 69.582031 126.445312 70.136719 L 131.105469 70.136719 C 130.945312 69.582031 130.652344 69.125 130.226562 68.835938 C 129.804688 68.542969 129.347656 68.378906 128.824219 68.378906 C 128.304688 68.378906 127.816406 68.542969 127.359375 68.867188 Z M 127.359375 68.835938 " fill-opacity="1" fill-rule="nonzero"/><path fill="#6e6f72" d="M 145.351562 65.777344 C 145.902344 66.003906 146.359375 66.332031 146.75 66.722656 C 147.140625 67.144531 147.433594 67.632812 147.664062 68.214844 C 147.859375 68.800781 147.988281 69.417969 147.988281 70.136719 L 147.988281 77.027344 L 144.40625 77.027344 L 144.40625 70.882812 C 144.40625 70.558594 144.339844 70.234375 144.207031 69.90625 C 144.078125 69.550781 143.882812 69.257812 143.558594 69.03125 C 143.230469 68.800781 142.871094 68.671875 142.449219 68.671875 C 141.699219 68.671875 141.144531 68.933594 140.722656 69.453125 C 140.296875 69.972656 140.101562 70.753906 140.101562 71.792969 L 140.101562 77.027344 L 136.515625 77.027344 L 136.515625 65.777344 L 140.101562 65.777344 L 140.101562 66.851562 C 140.527344 66.394531 141.046875 66.070312 141.632812 65.808594 C 142.222656 65.550781 142.871094 65.453125 143.558594 65.453125 C 144.242188 65.453125 144.796875 65.550781 145.316406 65.777344 Z M 145.351562 65.777344 " fill-opacity="1" fill-rule="nonzero"/><path fill="#6e6f72" d="M 153.140625 73.386719 C 153.203125 73.839844 153.433594 74.167969 153.789062 74.394531 C 154.148438 74.621094 154.605469 74.71875 155.128906 74.71875 C 155.648438 74.71875 155.941406 74.621094 156.203125 74.460938 C 156.464844 74.296875 156.59375 74.070312 156.59375 73.808594 C 156.59375 73.386719 156.234375 73.125 155.484375 72.964844 L 153.203125 72.507812 C 152.160156 72.3125 151.378906 71.921875 150.792969 71.371094 C 150.207031 70.816406 149.914062 70.101562 149.914062 69.222656 C 149.914062 68.347656 150.367188 67.175781 151.25 66.460938 C 152.128906 65.746094 153.300781 65.421875 154.769531 65.421875 C 156.234375 65.421875 157.277344 65.710938 158.191406 66.296875 C 159.101562 66.882812 159.65625 67.664062 159.886719 68.640625 L 156.59375 69.289062 C 156.527344 68.933594 156.332031 68.605469 156.007812 68.347656 C 155.679688 68.085938 155.226562 67.957031 154.703125 67.957031 C 154.183594 67.957031 153.953125 68.054688 153.726562 68.214844 C 153.53125 68.378906 153.398438 68.605469 153.398438 68.835938 C 153.398438 69.222656 153.691406 69.484375 154.246094 69.613281 L 156.886719 70.167969 C 157.898438 70.363281 158.679688 70.785156 159.203125 71.402344 C 159.722656 72.019531 159.984375 72.734375 159.984375 73.582031 C 159.984375 74.425781 159.753906 75.011719 159.332031 75.597656 C 158.90625 76.183594 158.289062 76.636719 157.472656 76.929688 C 156.660156 77.222656 155.777344 77.351562 154.867188 77.351562 C 153.953125 77.351562 152.945312 77.222656 152.195312 76.964844 C 151.445312 76.703125 150.859375 76.3125 150.402344 75.859375 C 149.945312 75.402344 149.683594 74.785156 149.554688 74.101562 L 153.074219 73.386719 Z M 153.140625 73.386719 " fill-opacity="1" fill-rule="nonzero"/><path fill="#6e6f72" d="M 173.054688 72.3125 L 164.773438 72.3125 C 164.9375 72.964844 165.230469 73.484375 165.65625 73.90625 C 166.078125 74.296875 166.601562 74.492188 167.21875 74.492188 C 168.328125 74.492188 169.140625 74.070312 169.628906 73.191406 L 172.824219 73.839844 C 172.53125 74.558594 172.140625 75.175781 171.617188 75.695312 C 171.097656 76.214844 170.511719 76.605469 169.761719 76.929688 C 169.042969 77.222656 168.195312 77.386719 167.21875 77.386719 C 166.242188 77.386719 165.65625 77.257812 164.9375 76.964844 C 164.21875 76.671875 163.570312 76.28125 163.015625 75.726562 C 162.460938 75.207031 162.035156 74.558594 161.710938 73.808594 C 161.386719 73.0625 161.253906 72.25 161.253906 71.402344 C 161.253906 70.558594 161.417969 69.746094 161.710938 69.03125 C 162.003906 68.28125 162.460938 67.664062 163.015625 67.109375 C 163.570312 66.589844 164.21875 66.167969 164.9375 65.875 C 165.65625 65.582031 166.4375 65.453125 167.21875 65.453125 C 168 65.453125 168.75 65.582031 169.433594 65.875 C 170.121094 66.167969 170.769531 66.558594 171.292969 67.078125 C 171.8125 67.597656 172.238281 68.25 172.5625 68.996094 C 172.890625 69.746094 173.019531 70.558594 173.054688 71.4375 L 173.054688 72.347656 Z M 165.753906 68.835938 C 165.296875 69.160156 165.003906 69.582031 164.839844 70.136719 L 169.5 70.136719 C 169.335938 69.582031 169.042969 69.125 168.621094 68.835938 C 168.195312 68.542969 167.742188 68.378906 167.21875 68.378906 C 166.699219 68.378906 166.207031 68.542969 165.753906 68.867188 Z M 165.753906 68.835938 " fill-opacity="1" fill-rule="nonzero"/></svg>